<svg id="svg" version="1.1" xmlns="http://www.w3.org/2000/svg" xmlns:xlink="http://www.w3.org/1999/xlink" width="400" height="380.0807537012113" viewBox="0, 0, 400,380.0807537012113"><g id="svgg"><path id="path0" d="M194.735 89.471 C 194.646 89.824,194.614 92.822,194.662 96.133 L 194.751 102.153 195.559 102.132 C 196.003 102.121,198.062 101.879,200.135 101.596 C 214.601 99.615,232.488 102.147,246.299 108.129 C 251.039 110.183,258.755 114.330,259.489 115.219 C 259.563 115.309,259.805 115.449,260.028 115.531 C 261.601 116.107,269.693 122.714,273.799 126.774 C 304.306 156.939,308.932 206.629,284.388 240.511 C 283.637 241.548,282.828 242.699,282.589 243.069 C 282.351 243.439,281.927 243.984,281.647 244.280 C 281.368 244.576,280.955 245.084,280.730 245.408 C 279.359 247.387,272.213 254.861,269.448 257.208 C 250.006 273.710,225.503 281.268,201.076 278.297 C 198.486 277.981,196.003 277.709,195.559 277.691 L 194.751 277.658 194.751 284.077 C 194.751 287.607,194.827 290.619,194.921 290.770 C 195.192 291.208,218.492 290.851,222.476 290.348 C 236.874 288.527,250.293 284.137,261.234 277.669 C 262.371 276.997,263.344 276.447,263.396 276.447 C 263.448 276.447,264.801 275.583,266.402 274.528 C 286.822 261.069,301.828 240.762,308.319 217.802 C 309.366 214.097,309.793 212.251,310.910 206.595 C 312.571 198.182,312.574 181.783,310.915 173.217 C 304.391 139.516,284.587 113.165,255.096 98.942 C 239.356 91.351,226.441 88.843,203.033 88.833 L 194.896 88.829 194.735 89.471 M161.605 128.226 C 147.514 139.322,137.193 156.206,133.525 174.159 C 132.883 177.301,132.173 182.758,132.168 184.590 C 132.167 184.855,135.414 184.926,147.510 184.926 L 162.853 184.926 162.853 156.124 C 162.853 140.283,162.823 127.328,162.786 127.336 C 162.749 127.343,162.217 127.744,161.605 128.226 M194.886 165.003 L 194.886 184.948 218.102 184.870 L 241.319 184.791 243.834 183.913 C 250.180 181.697,254.459 177.529,256.677 171.401 C 257.485 169.166,257.890 163.360,257.375 161.373 C 257.222 160.781,256.981 159.842,256.841 159.288 C 255.442 153.775,249.213 147.530,243.712 146.127 C 243.136 145.980,242.180 145.728,241.588 145.568 C 240.871 145.373,232.901 145.239,217.699 145.166 L 194.886 145.057 194.886 165.003 M132.167 195.377 C 132.167 198.069,133.789 208.234,134.580 210.498 C 134.710 210.868,135.028 211.898,135.288 212.786 C 138.454 223.600,144.511 234.145,152.894 243.435 C 155.050 245.825,159.717 250.132,162.382 252.192 C 162.830 252.538,162.853 251.142,162.853 223.721 L 162.853 194.886 147.510 194.886 C 132.833 194.886,132.167 194.907,132.167 195.377 M194.830 199.919 C 194.787 202.702,194.784 211.672,194.825 219.852 L 194.899 234.724 216.359 234.722 C 239.079 234.720,241.286 234.623,244.421 233.492 C 259.030 228.222,262.294 209.011,250.221 199.351 C 248.359 197.861,245.855 196.549,243.203 195.673 L 241.319 195.050 218.114 194.954 L 194.909 194.858 194.830 199.919 " stroke="none" fill="#fbfbfb" fill-rule="evenodd"></path><path id="path1" d="M116.689 89.049 C 113.804 90.023,111.555 92.190,110.214 95.289 C 109.600 96.710,109.225 183.805,109.829 184.933 C 110.099 185.438,110.417 185.464,116.127 185.464 C 123.023 185.464,122.614 185.619,122.871 182.907 C 123.654 174.648,125.018 168.137,127.453 161.027 C 132.511 146.261,142.061 132.309,153.840 122.476 C 155.170 121.366,156.299 120.367,156.348 120.256 C 156.397 120.145,156.548 120.054,156.682 120.054 C 156.905 120.054,157.606 119.545,158.375 118.825 C 158.967 118.270,165.263 114.132,165.515 114.132 C 165.655 114.132,165.810 114.041,165.859 113.930 C 166.302 112.933,182.706 105.518,184.468 105.518 C 185.410 105.518,185.474 104.918,185.401 96.737 L 185.330 88.694 151.682 88.644 C 120.741 88.598,117.927 88.631,116.689 89.049 M194.347 95.709 L 194.347 102.901 195.626 102.740 C 196.329 102.652,198.358 102.365,200.135 102.103 C 210.374 100.591,225.393 101.852,236.474 105.153 C 244.728 107.612,255.761 112.824,260.565 116.533 C 261.083 116.933,262.113 117.669,262.853 118.168 C 273.412 125.287,284.813 138.828,290.835 151.402 C 317.363 206.789,281.455 271.161,220.252 277.936 C 214.983 278.519,204.174 278.367,199.462 277.643 C 197.759 277.381,195.942 277.157,195.424 277.143 L 194.482 277.120 194.410 284.100 C 194.354 289.504,194.415 291.128,194.679 291.296 C 195.847 292.037,218.574 291.390,225.572 290.416 C 244.161 287.830,264.261 278.776,277.167 267.175 C 281.522 263.260,285.084 259.700,288.440 255.907 C 314.471 226.487,320.159 180.887,302.271 145.037 C 299.205 138.894,293.458 129.634,291.776 128.129 C 291.693 128.055,291.183 127.408,290.642 126.692 C 278.809 111.012,258.437 97.580,237.941 91.944 C 228.300 89.293,223.438 88.759,207.739 88.628 L 194.347 88.516 194.347 95.709 M216.410 89.101 C 249.978 90.796,280.402 109.058,297.800 137.954 C 304.393 148.904,308.179 159.082,310.915 173.217 C 312.574 181.783,312.571 198.182,310.910 206.595 C 309.793 212.251,309.366 214.097,308.319 217.802 C 301.828 240.762,286.822 261.069,266.402 274.528 C 264.801 275.583,263.448 276.447,263.396 276.447 C 263.344 276.447,262.371 276.997,261.234 277.669 C 250.293 284.137,236.874 288.527,222.476 290.348 C 218.492 290.851,195.192 291.208,194.921 290.770 C 194.827 290.619,194.751 287.607,194.751 284.077 L 194.751 277.658 195.559 277.691 C 196.003 277.709,198.486 277.981,201.076 278.297 C 222.020 280.844,244.355 275.308,261.410 263.341 C 265.141 260.723,266.779 259.473,269.448 257.208 C 272.213 254.861,279.359 247.387,280.730 245.408 C 280.955 245.084,281.368 244.576,281.647 244.280 C 281.927 243.984,282.351 243.439,282.589 243.069 C 282.828 242.699,283.637 241.548,284.388 240.511 C 308.932 206.629,304.306 156.939,273.799 126.774 C 269.693 122.714,261.601 116.107,260.028 115.531 C 259.805 115.449,259.563 115.309,259.489 115.219 C 258.755 114.330,251.039 110.183,246.299 108.129 C 232.488 102.147,214.601 99.615,200.135 101.596 C 198.062 101.879,196.003 102.121,195.559 102.132 L 194.751 102.153 194.662 96.133 C 194.614 92.822,194.646 89.824,194.735 89.471 L 194.896 88.829 203.033 88.833 C 207.509 88.835,213.528 88.955,216.410 89.101 M205.114 110.545 C 203.242 110.681,197.606 111.441,196.024 111.771 C 194.196 112.152,194.319 111.195,194.407 124.361 L 194.482 135.532 218.035 135.691 C 242.394 135.856,242.593 135.865,246.407 137.046 C 249.281 137.935,254.913 140.801,254.913 141.375 C 254.913 141.492,255.032 141.588,255.179 141.588 C 255.665 141.588,259.970 145.686,260.834 146.971 C 261.057 147.301,261.583 148.012,262.005 148.550 C 263.292 150.194,265.351 154.763,266.080 157.593 C 266.459 159.067,266.918 160.367,267.100 160.482 C 267.485 160.727,283.736 160.778,284.366 160.536 C 285.453 160.119,281.736 152.147,277.688 146.211 C 275.867 143.543,274.241 141.262,273.894 140.892 C 273.744 140.732,273.197 140.065,272.678 139.412 C 271.020 137.320,266.668 132.776,264.451 130.821 C 262.027 128.685,261.171 127.961,260.310 127.322 C 259.811 126.952,259.271 126.520,259.109 126.362 C 258.506 125.773,252.294 121.728,250.673 120.870 C 249.748 120.380,248.991 119.875,248.991 119.747 C 248.991 119.620,248.813 119.515,248.595 119.515 C 248.377 119.515,247.802 119.298,247.316 119.031 C 243.538 116.958,235.014 113.762,230.686 112.795 C 224.295 111.366,223.331 111.197,219.112 110.770 C 215.643 110.418,208.461 110.303,205.114 110.545 M182.369 115.728 C 181.777 116.006,180.748 116.457,180.082 116.731 C 179.416 117.004,177.418 117.954,175.641 118.843 L 172.409 120.458 172.341 152.610 C 172.303 170.294,172.366 184.856,172.481 184.970 C 172.733 185.223,184.906 185.305,185.154 185.056 C 185.251 184.960,185.330 169.235,185.330 150.112 L 185.330 115.343 184.388 115.283 C 183.869 115.249,182.961 115.450,182.369 115.728 M160.157 128.691 C 144.064 141.953,133.229 162.659,131.752 182.977 L 131.571 185.469 147.414 185.399 L 163.257 185.330 163.257 156.258 C 163.257 122.597,163.621 125.836,160.157 128.691 M162.853 156.124 L 162.853 184.926 147.510 184.926 C 135.414 184.926,132.167 184.855,132.168 184.590 C 132.197 174.029,137.476 158.011,144.477 147.241 C 149.073 140.171,160.434 127.819,162.786 127.336 C 162.823 127.328,162.853 140.283,162.853 156.124 M194.474 145.146 C 194.402 145.336,194.374 154.455,194.412 165.410 L 194.482 185.330 217.631 185.330 L 240.781 185.330 243.203 184.597 C 262.711 178.701,263.196 152.238,243.915 145.674 L 241.857 144.973 218.232 144.887 C 199.209 144.818,194.580 144.869,194.474 145.146 M241.588 145.568 C 242.180 145.728,243.136 145.980,243.712 146.127 C 249.213 147.530,255.442 153.775,256.841 159.288 C 256.981 159.842,257.222 160.781,257.375 161.373 C 257.890 163.360,257.485 169.166,256.677 171.401 C 254.459 177.529,250.180 181.697,243.834 183.913 L 241.319 184.791 218.102 184.870 L 194.886 184.948 194.886 165.003 L 194.886 145.057 217.699 145.166 C 232.901 145.239,240.871 145.373,241.588 145.568 M266.905 169.829 C 266.821 169.964,266.451 171.237,266.082 172.658 C 265.218 175.982,263.132 180.279,261.171 182.773 C 259.902 184.386,256.150 188.031,255.150 188.621 C 254.323 189.110,253.827 190.238,254.307 190.540 C 256.292 191.792,260.484 195.998,261.814 198.071 C 262.351 198.910,262.993 199.899,263.240 200.269 C 264.362 201.955,265.113 203.935,266.708 209.421 L 266.904 210.094 277.530 210.094 L 288.156 210.094 288.754 207.672 C 291.430 196.834,291.171 177.627,288.252 170.323 L 287.956 169.583 277.507 169.583 C 271.481 169.583,266.993 169.687,266.905 169.829 M114.670 194.595 L 109.690 194.751 109.690 239.031 L 109.690 283.311 110.328 284.893 C 111.312 287.333,113.965 289.876,116.420 290.730 L 118.304 291.386 151.385 291.460 C 181.502 291.527,184.509 291.494,184.946 291.099 C 185.384 290.703,185.428 289.977,185.452 282.676 L 185.479 274.687 182.578 273.712 C 176.763 271.757,169.251 268.253,165.410 265.705 C 164.818 265.312,164.001 264.822,163.594 264.617 C 163.186 264.411,162.853 264.142,162.853 264.019 C 162.853 263.896,162.724 263.795,162.565 263.795 C 162.224 263.795,159.798 262.174,159.668 261.860 C 159.619 261.740,159.464 261.642,159.324 261.642 C 158.981 261.642,154.240 257.831,154.240 257.555 C 154.240 257.434,154.120 257.335,153.975 257.335 C 153.277 257.335,146.593 250.603,142.484 245.760 C 139.507 242.253,133.244 232.806,133.244 231.824 C 133.244 231.667,133.153 231.498,133.042 231.449 C 132.749 231.319,131.796 229.476,130.534 226.602 C 129.927 225.221,129.265 223.728,129.062 223.284 C 128.500 222.057,127.552 219.242,125.709 213.324 C 124.725 210.164,123.389 202.340,122.870 196.705 C 122.648 194.284,122.858 194.338,114.670 194.595 M131.756 194.628 C 130.939 195.950,133.204 208.226,135.576 215.333 C 138.418 223.850,144.994 235.753,149.412 240.377 C 149.624 240.599,150.207 241.265,150.708 241.857 C 155.122 247.081,161.917 253.073,162.970 252.669 C 163.401 252.503,163.654 195.882,163.228 194.773 C 163.028 194.251,132.077 194.109,131.756 194.628 M172.530 194.738 C 171.967 195.302,172.209 258.793,172.777 259.447 C 173.054 259.766,173.447 260.030,173.652 260.033 C 173.857 260.036,174.327 260.276,174.697 260.565 C 175.067 260.855,175.552 261.097,175.774 261.104 C 175.996 261.110,176.480 261.352,176.851 261.642 C 177.221 261.932,177.711 262.171,177.941 262.174 C 178.170 262.178,178.473 262.283,178.614 262.408 C 178.754 262.533,179.596 262.915,180.485 263.257 C 181.373 263.599,182.215 263.982,182.355 264.107 C 182.496 264.232,182.882 264.334,183.214 264.334 C 183.546 264.334,183.892 264.455,183.984 264.603 C 184.292 265.101,185.129 264.886,185.293 264.266 C 185.657 262.891,185.483 195.236,185.115 194.930 C 184.661 194.554,172.893 194.373,172.530 194.738 M194.541 194.512 C 194.091 194.962,194.319 234.925,194.773 235.099 C 195.480 235.370,237.642 235.279,240.060 235.001 C 261.956 232.483,264.650 202.301,243.607 195.258 L 241.319 194.492 218.027 194.405 C 205.217 194.357,194.648 194.405,194.541 194.512 M162.853 223.721 C 162.853 251.142,162.830 252.538,162.382 252.192 C 149.859 242.513,139.639 227.649,135.288 212.786 C 135.028 211.898,134.710 210.868,134.580 210.498 C 133.789 208.234,132.167 198.069,132.167 195.377 C 132.167 194.907,132.833 194.886,147.510 194.886 L 162.853 194.886 162.853 223.721 M243.203 195.673 C 257.943 200.542,262.540 217.817,251.953 228.555 C 245.994 234.599,245.303 234.719,216.359 234.722 L 194.899 234.724 194.825 219.852 C 194.784 211.672,194.787 202.702,194.830 199.919 L 194.909 194.858 218.114 194.954 L 241.319 195.050 243.203 195.673 M266.818 219.714 C 266.664 219.901,266.452 220.631,266.347 221.336 C 266.242 222.041,266.049 222.684,265.918 222.765 C 265.787 222.846,265.680 223.192,265.680 223.535 C 265.680 224.421,264.456 227.245,263.043 229.622 C 259.487 235.601,253.860 240.213,247.346 242.487 C 242.642 244.129,242.352 244.145,217.653 244.145 C 205.303 244.145,195.007 244.219,194.773 244.309 C 194.314 244.485,194.106 266.768,194.556 267.476 C 195.065 268.275,204.864 269.448,211.033 269.448 C 223.741 269.448,236.484 266.411,247.241 260.818 C 250.415 259.168,251.759 258.416,252.073 258.117 C 252.213 257.983,252.536 257.873,252.790 257.873 C 253.045 257.873,253.293 257.776,253.342 257.656 C 253.392 257.536,254.038 257.033,254.778 256.537 C 256.094 255.656,261.106 251.967,261.373 251.684 C 261.447 251.605,262.174 250.999,262.988 250.337 C 267.452 246.709,273.617 239.743,277.522 233.917 C 278.167 232.954,278.764 232.106,278.849 232.032 C 279.529 231.441,284.553 221.137,284.612 220.211 L 284.657 219.515 275.877 219.445 C 269.061 219.389,267.035 219.450,266.818 219.714 " stroke="none" fill="#5cb3fa" fill-rule="evenodd"></path></g></svg>